<svg data-v-423bf9ae="" xmlns="http://www.w3.org/2000/svg" viewBox="0 0 303 90" class="iconLeftSlogan"><!----><!----><!----><g data-v-423bf9ae="" id="5fb81239-f460-4405-b663-bb76e01788c4" fill="black" transform="matrix(4.322766534963878,0,0,4.322766534963878,120.59949558312195,2.636887767374926)"><path d="M-0.15 2.92L-0.15 10.50L2.04 10.50L2.04 5.10L2.04 5.10Q2.04 4.23 2.99 4.23L2.99 4.23L2.99 4.23Q3.94 4.23 3.94 5.10L3.94 5.10L3.94 10.50L6.07 10.50L6.07 5.10L6.07 5.10Q6.07 4.23 7 4.23L7 4.23L7 4.23Q7.93 4.23 7.93 5.10L7.93 5.10L7.93 10.50L10.12 10.50L10.12 4.67L10.12 4.67Q10.12 2.77 8.16 2.77L8.16 2.77L8.16 2.77Q6.19 2.77 5.78 3.70L5.78 3.70L5.78 3.70Q5.45 2.77 3.75 2.77L3.75 2.77L3.75 2.77Q2.04 2.77 2.04 3.94L2.04 3.94L2.04 2.92L-0.15 2.92ZM11.35 10.50L14.99 0L16.63 0L20.27 10.50L18.00 10.50L17.06 7.88L14.12 7.88L13.18 10.50L11.35 10.50ZM14.67 6.42L16.60 6.42L15.60 3.32L14.67 6.42ZM20.91 0L20.91 10.50L23.10 10.50L23.10 5.98L25.29 5.98L25.29 5.98Q26.02 5.98 26.02 6.71L26.02 6.71L26.02 9.92L26.02 9.92Q26.02 10.50 26.60 10.50L26.60 10.50L28.79 10.50L28.79 10.50Q28.20 10.50 28.20 9.92L28.20 9.92L28.20 7L28.20 7Q28.20 5.25 26.60 5.25L26.60 5.25L26.60 5.25Q28.20 5.25 28.20 3.50L28.20 3.50L28.20 1.75L28.20 1.75Q28.20 0 25.73 0L25.73 0L20.91 0ZM25.29 4.52L23.10 4.52L23.10 1.46L25.29 1.46L25.29 1.46Q26.02 1.46 26.02 2.19L26.02 2.19L26.02 3.79L26.02 3.79Q26.02 4.52 25.29 4.52L25.29 4.52ZM31.56 2.92L29.37 2.92L29.37 10.94L29.37 10.94Q29.37 11.81 28.47 11.81L28.47 11.81L28.47 13.27L29.51 13.27L29.51 13.27Q31.56 13.27 31.56 11.75L31.56 11.75L31.56 2.92ZM31.67 0.42L31.67 0.42L31.67 0.42Q31.67-0.61 30.46-0.61L30.46-0.61L30.46-0.61Q29.25-0.61 29.25 0.42L29.25 0.42L29.25 0.42Q29.25 1.46 30.46 1.46L30.46 1.46L30.46 1.46Q31.67 1.46 31.67 0.42ZM36.37 9.71L36.37 9.71Q36.37 10.65 35.15 10.65L35.15 10.65L35.15 10.65Q32.43 10.65 32.43 8.75L32.43 8.75L32.43 7.76L32.43 7.76Q32.43 5.80 35.50 5.80L35.50 5.80L35.50 5.80Q36.37 5.80 36.37 5.25L36.37 5.25L36.37 4.96L36.37 4.96Q36.37 4.23 35.50 4.23L35.50 4.23L35.50 4.23Q34.83 4.23 34.83 4.96L34.83 4.96L34.83 5.25L32.64 5.25L32.64 4.67L32.64 4.67Q32.64 2.77 35.50 2.77L35.50 2.77L35.50 2.77Q38.56 2.77 38.56 4.67L38.56 4.67L38.56 9.48L38.56 9.48Q38.56 10.50 39.14 10.50L39.14 10.50L36.95 10.50L36.95 10.50Q36.37 10.50 36.37 9.71L36.37 9.71ZM36.37 6.82L36.37 6.82Q36.37 7.26 35.50 7.26L35.50 7.26L35.50 7.26Q34.62 7.26 34.62 8.05L34.62 8.05L34.62 8.46L34.62 8.46Q34.62 9.19 35.50 9.19L35.50 9.19L35.50 9.19Q36.37 9.19 36.37 8.10L36.37 8.10L36.37 6.82ZM39.87 10.50L42.06 10.50L42.06-0.29L39.87-0.29L39.87 10.50Z"></path></g><!----><g data-v-423bf9ae="" id="10aeb322-184f-4b6f-b298-44749b8934d7" transform="matrix(1.0593157669718676,0,0,1.0593157669718676,-3.1683544655402613,-5.341372201665791)" stroke="none" fill="black"><path d="M90.274 73h-.002c-.004 0-.003.029 0 .07l.283.283c.057.047.107-.003.149-.053-.1-.112-.261-.3-.43-.3zM90.705 73.301c.084.093.129.136.103-.024-.016-.091-.053-.034-.103.024z"></path><path d="M85.846 61.247a1.748 1.748 0 0 0-1.581-2.687l-5.248.316a48.79 48.79 0 0 0 4.173-1.74c11.922-5.683 14.306-22.93 14.411-23.66.051-.345-.4-.729-.739-.801-.188-.035-4.649-.912-10.458.038-3.421.561-6.594 1.643-9.433 3.216a46.065 46.065 0 0 0-6.855 4.672l-2.819 1.219c.855-2.863 1.372-6.403.724-10.354-1.719-10.51-15.789-25.044-16.382-25.671-.152-.158-.456.205-.64.205h-.004c-.179 0-.334-.23-.422-.037-.4.84-9.66 20.398-8.043 30.26.764 4.675 2.897 8.116 4.83 10.493-2.935-1.357-7.286-2.967-13.002-3.785a34.016 34.016 0 0 0-10.344.094c-5.868.956-9.563 3.076-9.716 3.166a.64.64 0 0 0-.279.792c.117.311 1.548 3.978 4.494 7.945a11.16 11.16 0 0 0-.168.389l-6.255 2.916a1.75 1.75 0 0 0 .093 3.212l7.729 3.073c.321.512.879 1.367 1.657 2.447L4.284 74.733a1.75 1.75 0 0 0-.283 3.033c.245.171 6.131 4.191 16.83 4.191 4.439 0 9.098-.698 13.858-2.076.072.048.146.087.218.134-1.063 1.569-1.802 2.678-1.894 2.814a.658.658 0 0 0 .002.726c.145.222.41.342.668.282a86.199 86.199 0 0 0 5.739-1.32c3.926 1.817 7.933 2.752 11.973 2.752 2.623 0 5.267-.398 7.899-1.177.472 3.498 1.128 6.454 2.008 6.607 2.207.377 4.996-5.769 4.996-5.769l-.755-3.44c3.156-1.733 6.109-4.036 8.733-6.474 5.593.44 15.653-.99 16.09-1.009.019-.002-.08-.716-.095-.938-1.061-1.048-4.427-4.251-8.009-6.839 2.146-2.749 3.441-4.759 3.584-4.983zm-15.95 12.956c-1.626 1.369-3.35 2.635-5.14 3.7-.849.505-1.708.974-2.582 1.376-1.095.504-2.19.93-3.286 1.279-4.691 1.497-9.383 1.571-14.004.265-2.696-.762-5.368-1.998-8.003-3.706-.301-.194-.603-.382-.902-.589a1.755 1.755 0 0 0-1.505-.235c-4.71 1.436-9.301 2.163-13.644 2.163-5.267 0-9.229-1.081-11.728-2.052L25 69.259a1.75 1.75 0 0 0 .661-2.675c-1.961-2.507-3.039-4.343-3.05-4.361a1.752 1.752 0 0 0-.865-.744l-4.502-1.79 3.244-1.513c.174-.081.325-.197.462-.328a1.77 1.77 0 0 0 .475-.753c.062-.202 1.571-4.956 6.06-4.956.397 0 .817.036 1.245.107 2.701.453 6.905 3.98 8.297 5.302a1.753 1.753 0 0 0 1.899.338l37.155-16.052c-1.823 5.07-6.107 14.265-14.16 18.204-.75.367-1.136 1.211-.924 2.018s.953 1.352 1.798 1.302l12.679-.764 5.386-.324a79.156 79.156 0 0 1-1.551 2.03c-2.306 2.933-5.588 6.686-9.413 9.903z"></path></g><!----><g data-v-423bf9ae="" id="456acee0-d166-4214-86bc-130760d58278" fill="black" transform="matrix(0.4326855601770033,0,0,0.4326855601770033,120.37983613082234,59.707462693921094)"><path d="M4.40 1.42L4.40 1.42Q3.69 1.19 2.51 1.57L2.51 1.57L2.51 1.57Q1.00 2.06 0.44 3.77L0.44 3.77L0.44 3.77Q0.09 4.83 0.27 6.11L0.27 6.11L0.27 6.11Q0.36 6.76 0.62 7.16L0.62 7.16L0.62 7.16Q0.21 7.38-0.09 7.70L-0.09 7.70L-0.09 7.70Q-1.09 8.80-0.98 10.01L-0.98 10.01L-0.98 10.01Q-0.91 10.70-0.43 11.11L-0.43 11.11L-0.43 11.11Q-0.03 11.44 0.79 11.42L0.79 11.42L0.79 11.42Q1.63 11.39 2.33 10.95L2.33 10.95L2.33 10.95Q3.08 10.49 3.38 9.76L3.38 9.76L3.38 9.76Q3.45 9.61 3.17 9.60L3.17 9.60L3.17 9.60Q2.99 9.59 2.80 9.63L2.80 9.63L2.80 9.63Q2.05 9.76 1.95 10.02L1.95 10.02L1.95 10.02Q1.75 10.51 1.40 10.80L1.40 10.80L1.40 10.80Q1.39 10.81 1.37 10.82L1.37 10.82L1.37 10.82Q1.33 10.81 1.32 10.81L1.32 10.81L1.32 10.81Q1.25 10.79 1.17 10.75L1.17 10.75L1.17 10.75Q1.00 10.68 0.85 10.52L0.85 10.52L0.85 10.52Q0.56 10.23 0.49 9.63L0.49 9.63L0.49 9.63Q0.39 8.83 1.02 7.86L1.02 7.86L1.02 7.86Q1.10 7.74 1.20 7.62L1.20 7.62L1.20 7.62Q1.42 7.70 1.69 7.72L1.69 7.72L1.69 7.72Q2.09 7.74 2.58 7.51L2.58 7.51L2.58 7.51Q3.00 7.32 2.85 7.18L2.85 7.18L2.85 7.18Q2.56 6.90 2.14 6.84L2.14 6.84L2.14 6.84Q2.10 6.79 2.06 6.75L2.06 6.75L2.06 6.75Q1.86 6.45 1.75 5.89L1.75 5.89L1.75 5.89Q1.56 4.89 1.74 4.00L1.74 4.00L1.74 4.00Q2.01 2.70 2.78 2.04L2.78 2.04L2.78 2.04Q2.83 2.00 2.93 1.93L2.93 1.93L2.93 1.93Q2.93 1.93 2.93 1.93L2.93 1.93L2.93 1.93Q3.06 1.94 3.04 1.93L3.04 1.93L3.04 1.93Q3.62 2.02 3.51 2.62L3.51 2.62L3.51 2.62Q3.46 2.86 4.09 2.75L4.09 2.75L4.09 2.75Q4.40 2.69 4.65 2.58L4.65 2.58L4.65 2.58Q4.93 2.45 4.95 2.36L4.95 2.36L4.95 2.36Q5.09 1.63 4.40 1.42L4.40 1.42ZM16.48 1.78L16.48 1.78Q16.42 1.56 15.70 1.76L15.70 1.76L15.70 1.76Q14.23 2.15 13.34 3.63L13.34 3.63L13.34 3.63Q13.33 3.64 13.32 3.65L13.32 3.65L13.32 3.65Q13.32 3.66 13.31 3.67L13.31 3.67L13.31 3.67Q13.28 3.51 13.23 3.37L13.23 3.37L13.23 3.37Q12.91 2.13 12.25 1.83L12.25 1.83L12.25 1.83Q11.95 1.69 11.31 1.91L11.31 1.91L11.31 1.91Q11.17 1.97 10.99 2.08L10.99 2.08L10.99 2.08Q10.72 2.26 10.87 2.32L10.87 2.32L10.87 2.32Q11.46 2.60 11.79 3.81L11.79 3.81L11.79 3.81Q11.96 4.46 12.16 6.13L12.16 6.13L12.16 6.13Q12.15 6.10 12.17 6.22L12.17 6.22L12.17 6.22Q12.12 6.36 12.09 6.42L12.09 6.42L12.09 6.42Q11.71 7.43 11.19 8.38L11.19 8.38L11.19 8.38Q10.84 9.02 10.57 9.48L10.57 9.48L10.57 9.48Q10.40 9.75 10.25 9.99L10.25 9.99L10.25 9.99Q10.18 10.10 10.10 10.21L10.10 10.21L10.10 10.21Q10.04 10.31 9.98 10.37L9.98 10.37L9.98 10.37Q9.53 10.59 9.71 10.71L9.71 10.71L9.71 10.71Q9.97 10.88 10.72 10.62L10.72 10.62L10.72 10.62Q11.09 10.49 11.30 10.25L11.30 10.25L11.30 10.25Q11.55 9.97 11.96 9.31L11.96 9.31L11.96 9.31Q12.28 8.78 12.58 8.22L12.58 8.22L12.58 8.22Q13.08 10.00 13.66 10.90L13.66 10.90L13.66 10.90Q13.81 11.15 14.51 10.91L14.51 10.91L14.51 10.91Q14.79 10.81 14.97 10.70L14.97 10.70L14.97 10.70Q15.16 10.58 15.12 10.51L15.12 10.51L15.12 10.51Q14.55 9.63 14.03 7.77L14.03 7.77L14.03 7.77Q13.77 6.86 13.64 5.91L13.64 5.91L13.64 5.91Q13.93 5.15 14.05 4.85L14.05 4.85L14.05 4.85Q14.79 3.09 15.53 2.41L15.53 2.41L15.53 2.41Q15.65 2.30 15.78 2.21L15.78 2.21L15.78 2.21Q15.78 2.21 15.83 2.19L15.83 2.19L15.84 2.19L15.84 2.19Q16.54 2.00 16.48 1.78L16.48 1.78ZM28.12 2.63L28.12 2.63Q27.82 1.84 27.11 1.42L27.11 1.42L27.11 1.42Q26.46 1.03 25.57 1.02L25.57 1.02L25.57 1.02Q24.55 1.00 23.30 1.39L23.30 1.39L23.30 1.39Q22.57 1.61 22.62 1.80L22.62 1.80L22.62 1.80Q22.69 2.04 23.41 1.83L23.41 1.83L23.41 1.83Q23.60 1.76 23.80 1.72L23.80 1.72L23.80 1.72Q23.80 1.72 23.85 1.70L23.85 1.70L23.85 1.70Q23.91 1.69 23.92 1.69L23.92 1.69L23.92 1.69Q23.98 1.67 24.05 1.66L24.05 1.66L24.05 1.66Q24.11 1.65 24.22 1.63L24.22 1.63L24.22 1.63Q24.23 1.63 24.32 1.62L24.32 1.62L24.32 1.62Q24.39 1.61 24.52 1.61L24.52 1.61L24.52 1.61Q24.53 1.61 24.62 1.61L24.62 1.61L24.62 1.61Q25.34 1.61 25.90 2.00L25.90 2.00L25.90 2.00Q26.51 2.43 26.74 3.27L26.74 3.27L26.74 3.27Q26.93 3.98 26.81 4.81L26.81 4.81L26.81 4.81Q26.56 6.56 25.38 7.40L25.38 7.40L25.38 7.40Q25.33 7.42 25.27 7.46L25.27 7.46L25.27 7.46Q25.29 7.46 25.27 7.46L25.27 7.46L25.27 7.46Q25.25 7.47 25.23 7.48L25.23 7.48L25.23 7.48Q25.18 7.48 25.18 7.49L25.18 7.49L25.18 7.49Q25.07 7.49 24.99 7.47L24.99 7.47L24.99 7.47Q24.32 7.36 24.24 6.66L24.24 6.66L24.24 6.66Q24.23 6.60 24.14 6.58L24.14 6.58L24.14 6.58Q24.14 6.55 24.16 6.49L24.16 6.49L24.16 6.49Q24.17 6.44 24.17 6.42L24.17 6.42L24.17 6.42Q24.71 3.25 25.03 2.24L25.03 2.24L25.03 2.24Q25.12 1.98 24.45 2.10L24.45 2.10L24.45 2.10Q24.14 2.15 23.89 2.27L23.89 2.27L23.89 2.27Q23.63 2.40 23.59 2.50L23.59 2.50L23.59 2.50Q23.27 3.51 22.71 6.77L22.71 6.77L22.71 6.77Q22.48 8.13 22.25 8.89L22.25 8.89L22.25 8.89Q21.81 10.44 21.77 10.94L21.77 10.94L21.77 10.94Q21.76 11.01 21.98 11.02L21.98 11.02L21.98 11.02Q22.20 11.03 22.48 10.98L22.48 10.98L22.48 10.98Q23.20 10.84 23.23 10.55L23.23 10.55L23.23 10.55Q23.26 10.13 23.72 8.54L23.72 8.54L23.72 8.54Q23.79 8.31 23.86 8.03L23.86 8.03L23.86 8.03Q24.49 8.13 25.34 7.92L25.34 7.92L25.34 7.92Q27.05 7.52 27.88 5.75L27.88 5.75L27.88 5.75Q28.66 4.09 28.12 2.63L28.12 2.63ZM39.31 1.42L39.31 1.42Q38.60 1.19 37.41 1.57L37.41 1.57L37.41 1.57Q35.90 2.06 35.34 3.77L35.34 3.77L35.34 3.77Q34.99 4.83 35.17 6.11L35.17 6.11L35.17 6.11Q35.26 6.76 35.53 7.16L35.53 7.16L35.53 7.16Q35.11 7.38 34.82 7.70L34.82 7.70L34.82 7.70Q33.82 8.80 33.93 10.01L33.93 10.01L33.93 10.01Q34.00 10.70 34.47 11.11L34.47 11.11L34.47 11.11Q34.87 11.44 35.70 11.42L35.70 11.42L35.70 11.42Q36.53 11.39 37.24 10.95L37.24 10.95L37.24 10.95Q37.99 10.49 38.29 9.76L38.29 9.76L38.29 9.76Q38.35 9.61 38.07 9.60L38.07 9.60L38.07 9.60Q37.90 9.59 37.71 9.63L37.71 9.63L37.71 9.63Q36.96 9.76 36.85 10.02L36.85 10.02L36.85 10.02Q36.65 10.51 36.31 10.80L36.31 10.80L36.31 10.80Q36.29 10.81 36.28 10.82L36.28 10.82L36.28 10.82Q36.23 10.81 36.22 10.81L36.22 10.81L36.22 10.81Q36.16 10.79 36.07 10.75L36.07 10.75L36.07 10.75Q35.91 10.68 35.75 10.52L35.75 10.52L35.75 10.52Q35.46 10.23 35.39 9.63L35.39 9.63L35.39 9.63Q35.29 8.83 35.92 7.86L35.92 7.86L35.92 7.86Q36.00 7.74 36.11 7.62L36.11 7.62L36.11 7.62Q36.32 7.70 36.59 7.72L36.59 7.72L36.59 7.72Q37.00 7.74 37.49 7.51L37.49 7.51L37.49 7.51Q37.91 7.32 37.75 7.18L37.75 7.18L37.75 7.18Q37.47 6.90 37.04 6.84L37.04 6.84L37.04 6.84Q37.00 6.79 36.97 6.75L36.97 6.75L36.97 6.75Q36.76 6.45 36.65 5.89L36.65 5.89L36.65 5.89Q36.46 4.89 36.65 4.00L36.65 4.00L36.65 4.00Q36.91 2.70 37.68 2.04L37.68 2.04L37.68 2.04Q37.73 2.00 37.83 1.93L37.83 1.93L37.83 1.93Q37.84 1.93 37.84 1.93L37.84 1.93L37.84 1.93Q37.97 1.94 37.95 1.93L37.95 1.93L37.95 1.93Q38.53 2.02 38.41 2.62L38.41 2.62L38.41 2.62Q38.36 2.86 38.99 2.75L38.99 2.75L38.99 2.75Q39.30 2.69 39.55 2.58L39.55 2.58L39.55 2.58Q39.83 2.45 39.85 2.36L39.85 2.36L39.85 2.36Q39.99 1.63 39.31 1.42L39.31 1.42ZM49.56 5.31L49.56 5.31Q49.41 6.24 48.51 7.18L48.51 7.18L48.51 7.18Q48.32 7.38 48.08 7.58L48.08 7.58L48.08 7.58Q48.02 7.63 47.96 7.68L47.96 7.68L47.96 7.68Q47.74 7.59 47.49 7.58L47.49 7.58L47.49 7.58Q48.05 4.74 48.19 2.66L48.19 2.66L48.19 2.66Q48.46 2.80 48.70 2.99L48.70 2.99L48.70 2.99Q49.21 3.39 49.44 4.03L49.44 4.03L49.44 4.03Q49.67 4.65 49.56 5.31L49.56 5.31ZM46.59 2.40L46.59 2.40Q46.59 2.40 46.60 2.39L46.60 2.39L46.60 2.39Q46.59 2.40 46.59 2.40L46.59 2.40ZM51.52 11.42L51.52 11.42Q50.79 10.88 49.26 8.99L49.26 8.99L49.26 8.99Q48.59 8.17 48.47 8.05L48.47 8.05L48.47 8.05Q48.93 7.84 49.36 7.50L49.36 7.50L49.36 7.50Q50.57 6.56 50.92 5.41L50.92 5.41L50.92 5.41Q51.17 4.60 50.96 3.84L50.96 3.84L50.96 3.84Q50.75 3.07 50.13 2.53L50.13 2.53L50.13 2.53Q48.88 1.46 46.81 1.88L46.81 1.88L46.81 1.88Q46.68 1.91 46.48 1.96L46.48 1.96L46.48 1.96Q45.75 2.14 45.81 2.37L45.81 2.37L45.81 2.37Q45.87 2.58 46.58 2.40L46.58 2.40L46.58 2.40Q46.65 2.39 46.70 2.38L46.70 2.38L46.70 2.38Q46.74 2.37 46.77 2.37L46.77 2.37L46.77 2.37Q46.66 5.11 45.42 10.79L45.42 10.79L45.42 10.79Q45.36 11.04 46.00 10.92L46.00 10.92L46.00 10.92Q46.31 10.87 46.56 10.75L46.56 10.75L46.56 10.75Q46.84 10.62 46.86 10.53L46.86 10.53L46.86 10.53Q47.15 9.17 47.25 8.72L47.25 8.72L47.25 8.72Q47.26 8.72 47.26 8.72L47.26 8.72L47.26 8.72Q47.26 8.72 47.26 8.72L47.26 8.72L47.26 8.72Q47.37 8.85 48.06 9.70L48.06 9.70L48.06 9.70Q49.38 11.34 50.14 11.92L50.14 11.92L50.14 11.92Q50.37 12.09 51.08 11.83L51.08 11.83L51.08 11.83Q51.27 11.76 51.41 11.67L51.41 11.67L51.41 11.67Q51.66 11.52 51.52 11.42L51.52 11.42ZM59.32 2.53L59.32 2.53Q59.07 3.62 58.45 6.79L58.45 6.79L58.45 6.79Q58.21 8.03 58.02 8.93L58.02 8.93L58.02 8.93Q57.63 10.78 57.63 10.91L57.63 10.91L57.63 10.91Q57.63 10.99 57.85 11.00L57.85 11.00L57.85 11.00Q58.07 11.01 58.35 10.96L58.35 10.96L58.35 10.96Q59.08 10.81 59.09 10.52L59.09 10.52L59.09 10.52Q59.10 10.23 59.25 9.62L59.25 9.62L59.25 9.62Q59.33 9.32 59.49 8.57L59.49 8.57L59.49 8.57Q59.66 7.77 59.92 6.44L59.92 6.44L59.92 6.44Q60.51 3.36 60.76 2.27L60.76 2.27L60.76 2.27Q60.81 2.02 60.17 2.13L60.17 2.13L60.17 2.13Q59.87 2.19 59.62 2.31L59.62 2.31L59.62 2.31Q59.34 2.44 59.32 2.53L59.32 2.53ZM72.11 1.42L72.11 1.42Q71.39 1.19 70.21 1.57L70.21 1.57L70.21 1.57Q68.70 2.06 68.14 3.77L68.14 3.77L68.14 3.77Q67.79 4.83 67.97 6.11L67.97 6.11L67.97 6.11Q68.06 6.76 68.33 7.16L68.33 7.16L68.33 7.16Q67.91 7.38 67.61 7.70L67.61 7.70L67.61 7.70Q66.62 8.80 66.73 10.01L66.73 10.01L66.73 10.01Q66.79 10.70 67.27 11.11L67.27 11.11L67.27 11.11Q67.67 11.44 68.50 11.42L68.50 11.42L68.50 11.42Q69.33 11.39 70.03 10.95L70.03 10.95L70.03 10.95Q70.79 10.49 71.09 9.76L71.09 9.76L71.09 9.76Q71.15 9.61 70.87 9.60L70.87 9.60L70.87 9.60Q70.70 9.59 70.51 9.63L70.51 9.63L70.51 9.63Q69.75 9.76 69.65 10.02L69.65 10.02L69.65 10.02Q69.45 10.51 69.10 10.80L69.10 10.80L69.10 10.80Q69.09 10.81 69.08 10.82L69.08 10.82L69.08 10.82Q69.03 10.81 69.02 10.81L69.02 10.81L69.02 10.81Q68.95 10.79 68.87 10.75L68.87 10.75L68.87 10.75Q68.71 10.68 68.55 10.52L68.55 10.52L68.55 10.52Q68.26 10.23 68.19 9.63L68.19 9.63L68.19 9.63Q68.09 8.83 68.72 7.86L68.72 7.86L68.72 7.86Q68.80 7.74 68.91 7.62L68.91 7.62L68.91 7.62Q69.12 7.70 69.39 7.72L69.39 7.72L69.39 7.72Q69.79 7.74 70.29 7.51L70.29 7.51L70.29 7.51Q70.70 7.32 70.55 7.18L70.55 7.18L70.55 7.18Q70.27 6.90 69.84 6.84L69.84 6.84L69.84 6.84Q69.80 6.79 69.77 6.75L69.77 6.75L69.77 6.75Q69.56 6.45 69.45 5.89L69.45 5.89L69.45 5.89Q69.26 4.89 69.45 4.00L69.45 4.00L69.45 4.00Q69.71 2.70 70.48 2.04L70.48 2.04L70.48 2.04Q70.53 2.00 70.63 1.93L70.63 1.93L70.63 1.93Q70.64 1.93 70.64 1.93L70.64 1.93L70.64 1.93Q70.77 1.94 70.75 1.93L70.75 1.93L70.75 1.93Q71.33 2.02 71.21 2.62L71.21 2.62L71.21 2.62Q71.16 2.86 71.79 2.75L71.79 2.75L71.79 2.75Q72.10 2.69 72.35 2.58L72.35 2.58L72.35 2.58Q72.63 2.45 72.65 2.36L72.65 2.36L72.65 2.36Q72.79 1.63 72.11 1.42L72.11 1.42ZM84.39 0.74L84.39 0.74Q84.08 0.79 83.83 0.91L83.83 0.91L83.83 0.91Q83.56 1.04 83.53 1.13L83.53 1.13L83.53 1.13Q82.65 3.96 82.02 7.39L82.02 7.39L82.02 7.39Q81.94 6.88 81.83 6.21L81.83 6.21L81.83 6.21Q81.53 4.44 81.48 4.05L81.48 4.05L81.48 4.05Q81.33 2.77 81.14 2.37L81.14 2.37L81.14 2.37Q81.14 2.37 81.13 2.35L81.13 2.35L81.14 2.34L81.14 2.34Q81.14 2.34 81.14 2.33L81.14 2.33L81.14 2.33Q81.18 2.08 80.55 2.20L80.55 2.20L80.55 2.20Q80.25 2.26 79.99 2.37L79.99 2.37L79.99 2.37Q79.71 2.51 79.69 2.60L79.69 2.60L79.69 2.60Q79.51 3.71 78.87 6.73L78.87 6.73L78.87 6.73Q78.32 9.34 78.11 10.89L78.11 10.89L78.11 10.89Q78.10 11.01 78.48 10.98L78.48 10.98L78.48 10.98Q78.74 10.96 78.91 10.91L78.91 10.91L78.91 10.91Q79.55 10.74 79.58 10.50L79.58 10.50L79.58 10.50Q79.78 8.97 80.33 6.38L80.33 6.38L80.33 6.38Q80.36 6.54 80.36 6.61L80.36 6.61L80.36 6.61Q80.58 7.90 80.76 8.95L80.76 8.95L80.76 8.95Q81.02 10.45 81.25 11.09L81.25 11.09L81.25 11.09Q81.30 11.24 81.64 11.21L81.64 11.21L81.64 11.21Q81.96 11.18 82.29 11.05L82.29 11.05L82.29 11.05Q82.88 10.89 82.91 10.65L82.91 10.65L82.91 10.65Q83.69 5.00 84.97 0.87L84.97 0.87L84.97 0.87Q85.05 0.62 84.39 0.74L84.39 0.74ZM96.07 1.54L96.07 1.54Q95.63 0.91 94.45 1.20L94.45 1.20L94.45 1.20Q93.50 1.43 92.85 2.14L92.85 2.14L92.85 2.14Q91.84 3.26 91.41 5.40L91.41 5.40L91.41 5.40Q91.12 6.86 91.02 8.67L91.02 8.67L91.02 8.67Q91.01 9.98 91.14 10.47L91.14 10.47L91.14 10.47Q91.42 11.44 92.50 11.50L92.50 11.50L92.50 11.50Q93.13 11.53 93.71 11.27L93.71 11.27L93.71 11.27Q94.31 10.99 94.68 10.51L94.68 10.51L94.68 10.51Q95.05 10.02 95.39 8.89L95.39 8.89L95.39 8.89Q95.46 8.64 94.81 8.76L94.81 8.76L94.81 8.76Q94.51 8.81 94.25 8.93L94.25 8.93L94.25 8.93Q93.98 9.06 93.95 9.15L93.95 9.15L93.95 9.15Q93.71 9.99 93.43 10.48L93.43 10.48L93.43 10.48Q93.32 10.68 93.19 10.83L93.19 10.83L93.19 10.83Q92.62 10.58 92.50 9.66L92.50 9.66L92.50 9.66Q92.47 9.42 92.48 8.20L92.48 8.20L92.48 8.20Q92.58 6.41 92.89 4.92L92.89 4.92L92.89 4.92Q93.36 2.75 94.39 1.80L94.39 1.80L94.39 1.80Q94.40 1.79 94.43 1.76L94.43 1.76L94.43 1.76Q94.79 2.01 94.89 2.75L94.89 2.75L94.89 2.75Q94.96 3.36 94.75 4.29L94.75 4.29L94.75 4.29Q94.42 5.76 94.41 5.80L94.41 5.80L94.41 5.80Q94.39 5.92 94.77 5.89L94.77 5.89L94.77 5.89Q95.03 5.87 95.20 5.82L95.20 5.82L95.20 5.82Q95.83 5.65 95.87 5.41L95.87 5.41L95.87 5.41Q95.92 5.07 96.08 4.41L96.08 4.41L96.08 4.41Q96.24 3.74 96.30 3.40L96.30 3.40L96.30 3.40Q96.49 2.17 96.07 1.54L96.07 1.54ZM104.30 2.53L104.30 2.53Q104.06 3.62 103.44 6.79L103.44 6.79L103.44 6.79Q103.20 8.03 103.01 8.93L103.01 8.93L103.01 8.93Q102.62 10.78 102.61 10.91L102.61 10.91L102.61 10.91Q102.61 10.99 102.84 11.00L102.84 11.00L102.84 11.00Q103.06 11.01 103.34 10.96L103.34 10.96L103.34 10.96Q104.07 10.81 104.08 10.52L104.08 10.52L104.08 10.52Q104.08 10.23 104.24 9.62L104.24 9.62L104.24 9.62Q104.32 9.32 104.47 8.57L104.47 8.57L104.47 8.57Q104.64 7.77 104.90 6.44L104.90 6.44L104.90 6.44Q105.50 3.36 105.75 2.27L105.75 2.27L105.75 2.27Q105.80 2.02 105.16 2.13L105.16 2.13L105.16 2.13Q104.86 2.19 104.60 2.31L104.60 2.31L104.60 2.31Q104.32 2.44 104.30 2.53L104.30 2.53ZM115.25 7.89L115.25 7.89Q115.14 7.90 114.24 7.84L114.24 7.84L114.24 7.84Q114.65 6.63 115.11 5.57L115.11 5.57L115.11 5.57Q115.27 5.18 115.82 3.95L115.82 3.95L115.82 3.95Q115.80 4.61 115.62 7.85L115.62 7.85L115.62 7.85Q115.45 7.87 115.25 7.89L115.25 7.89ZM117.06 1.18L117.06 1.18Q116.87 1.09 116.49 1.16L116.49 1.16L116.49 1.16Q115.85 1.27 115.64 1.55L115.64 1.55L115.64 1.55Q115.44 1.80 114.66 3.58L114.66 3.58L114.66 3.58Q114.52 3.90 114.16 4.70L114.16 4.70L114.16 4.70Q113.85 5.42 113.67 5.83L113.67 5.83L113.67 5.83Q113.25 6.79 112.88 7.86L112.88 7.86L112.88 7.86Q111.95 7.97 111.30 8.37L111.30 8.37L111.30 8.37Q111.13 8.48 111.15 8.58L111.15 8.58L111.15 8.58Q111.18 8.67 111.38 8.68L111.38 8.68L111.38 8.68Q111.90 8.70 112.38 8.43L112.38 8.43L112.38 8.43Q112.52 8.41 112.57 8.41L112.57 8.41L112.57 8.41Q112.63 8.41 112.69 8.41L112.69 8.41L112.69 8.41Q112.37 9.39 112.05 10.53L112.05 10.53L112.05 10.53Q111.98 10.79 112.64 10.67L112.64 10.67L112.64 10.67Q112.94 10.62 113.19 10.49L113.19 10.49L113.19 10.49Q113.46 10.37 113.49 10.27L113.49 10.27L113.49 10.27Q113.76 9.32 114.03 8.48L114.03 8.48L114.03 8.48Q114.32 8.50 114.52 8.47L114.52 8.47L114.52 8.47Q115.23 8.39 115.58 8.46L115.58 8.46L115.58 8.46Q115.47 10.55 115.47 12.02L115.47 12.02L115.47 12.02Q115.47 12.10 115.70 12.11L115.70 12.11L115.70 12.11Q115.92 12.12 116.20 12.06L116.20 12.06L116.20 12.06Q116.94 11.91 116.94 11.62L116.94 11.62L116.94 11.62Q116.94 9.90 117.14 6.45L117.14 6.45L117.14 6.45Q117.34 3.00 117.34 1.27L117.34 1.27L117.34 1.27Q117.34 1.18 117.06 1.18L117.06 1.18ZM138.71 5.31L138.71 5.31Q138.56 6.24 137.66 7.18L137.66 7.18L137.66 7.18Q137.47 7.38 137.23 7.58L137.23 7.58L137.23 7.58Q137.17 7.63 137.11 7.68L137.11 7.68L137.11 7.68Q136.89 7.59 136.64 7.58L136.64 7.58L136.64 7.58Q137.20 4.74 137.34 2.66L137.34 2.66L137.34 2.66Q137.61 2.80 137.85 2.99L137.85 2.99L137.85 2.99Q138.36 3.39 138.59 4.03L138.59 4.03L138.59 4.03Q138.82 4.65 138.71 5.31L138.71 5.31ZM135.73 2.40L135.73 2.40Q135.73 2.40 135.75 2.39L135.75 2.39L135.75 2.39Q135.74 2.40 135.73 2.40L135.73 2.40ZM140.67 11.42L140.67 11.42Q139.94 10.88 138.41 8.99L138.41 8.99L138.41 8.99Q137.74 8.17 137.62 8.05L137.62 8.05L137.62 8.05Q138.08 7.84 138.51 7.50L138.51 7.50L138.51 7.50Q139.71 6.56 140.07 5.41L140.07 5.41L140.07 5.41Q140.31 4.60 140.11 3.84L140.11 3.84L140.11 3.84Q139.90 3.07 139.28 2.53L139.28 2.53L139.28 2.53Q138.03 1.46 135.96 1.88L135.96 1.88L135.96 1.88Q135.83 1.91 135.63 1.96L135.63 1.96L135.63 1.96Q134.89 2.14 134.96 2.37L134.96 2.37L134.96 2.37Q135.02 2.58 135.73 2.40L135.73 2.40L135.73 2.40Q135.80 2.39 135.84 2.38L135.84 2.38L135.84 2.38Q135.88 2.37 135.92 2.37L135.92 2.37L135.92 2.37Q135.80 5.11 134.57 10.79L134.57 10.79L134.57 10.79Q134.51 11.04 135.15 10.92L135.15 10.92L135.15 10.92Q135.45 10.87 135.71 10.75L135.71 10.75L135.71 10.75Q135.99 10.62 136.01 10.53L136.01 10.53L136.01 10.53Q136.30 9.17 136.40 8.72L136.40 8.72L136.40 8.72Q136.40 8.72 136.40 8.72L136.40 8.72L136.40 8.72Q136.41 8.72 136.41 8.72L136.41 8.72L136.41 8.72Q136.52 8.85 137.20 9.70L137.20 9.70L137.20 9.70Q138.52 11.34 139.29 11.92L139.29 11.92L139.29 11.92Q139.51 12.09 140.23 11.83L140.23 11.83L140.23 11.83Q140.42 11.76 140.56 11.67L140.56 11.67L140.56 11.67Q140.81 11.52 140.67 11.42L140.67 11.42ZM151.76 1.42L151.76 1.42Q151.05 1.19 149.87 1.57L149.87 1.57L149.87 1.57Q148.36 2.06 147.80 3.77L147.80 3.77L147.80 3.77Q147.45 4.83 147.63 6.11L147.63 6.11L147.63 6.11Q147.72 6.76 147.98 7.16L147.98 7.16L147.98 7.16Q147.57 7.38 147.27 7.70L147.27 7.70L147.27 7.70Q146.28 8.80 146.38 10.01L146.38 10.01L146.38 10.01Q146.45 10.70 146.93 11.11L146.93 11.11L146.93 11.11Q147.33 11.44 148.16 11.42L148.16 11.42L148.16 11.42Q148.99 11.39 149.69 10.95L149.69 10.95L149.69 10.95Q150.45 10.49 150.75 9.76L150.75 9.76L150.75 9.76Q150.81 9.61 150.53 9.60L150.53 9.60L150.53 9.60Q150.36 9.59 150.17 9.63L150.17 9.63L150.17 9.63Q149.41 9.76 149.31 10.02L149.31 10.02L149.31 10.02Q149.11 10.51 148.76 10.80L148.76 10.80L148.76 10.80Q148.75 10.81 148.74 10.82L148.74 10.82L148.74 10.82Q148.69 10.81 148.68 10.81L148.68 10.81L148.68 10.81Q148.61 10.79 148.53 10.75L148.53 10.75L148.53 10.75Q148.37 10.68 148.21 10.52L148.21 10.52L148.21 10.52Q147.92 10.23 147.85 9.63L147.85 9.63L147.85 9.63Q147.75 8.83 148.38 7.86L148.38 7.86L148.38 7.86Q148.46 7.74 148.57 7.62L148.57 7.62L148.57 7.62Q148.78 7.70 149.05 7.72L149.05 7.72L149.05 7.72Q149.45 7.74 149.95 7.51L149.95 7.51L149.95 7.51Q150.36 7.32 150.21 7.18L150.21 7.18L150.21 7.18Q149.93 6.90 149.50 6.84L149.50 6.84L149.50 6.84Q149.46 6.79 149.43 6.75L149.43 6.75L149.43 6.75Q149.22 6.45 149.11 5.89L149.11 5.89L149.11 5.89Q148.92 4.89 149.11 4.00L149.11 4.00L149.11 4.00Q149.37 2.70 150.14 2.04L150.14 2.04L150.14 2.04Q150.19 2.00 150.29 1.93L150.29 1.93L150.29 1.93Q150.29 1.93 150.29 1.93L150.29 1.93L150.29 1.93Q150.42 1.94 150.40 1.93L150.40 1.93L150.40 1.93Q150.99 2.02 150.87 2.62L150.87 2.62L150.87 2.62Q150.82 2.86 151.45 2.75L151.45 2.75L151.45 2.75Q151.76 2.69 152.01 2.58L152.01 2.58L152.01 2.58Q152.29 2.45 152.31 2.36L152.31 2.36L152.31 2.36Q152.45 1.63 151.76 1.42L151.76 1.42ZM160.94 7.89L160.94 7.89Q160.84 7.90 159.93 7.84L159.93 7.84L159.93 7.84Q160.34 6.63 160.80 5.57L160.80 5.57L160.80 5.57Q160.97 5.18 161.51 3.95L161.51 3.95L161.51 3.95Q161.49 4.61 161.31 7.85L161.31 7.85L161.31 7.85Q161.14 7.87 160.94 7.89L160.94 7.89ZM162.75 1.18L162.75 1.18Q162.57 1.09 162.18 1.16L162.18 1.16L162.18 1.16Q161.54 1.27 161.33 1.55L161.33 1.55L161.33 1.55Q161.13 1.80 160.35 3.58L160.35 3.58L160.35 3.58Q160.21 3.90 159.85 4.70L159.85 4.70L159.85 4.70Q159.54 5.42 159.36 5.83L159.36 5.83L159.36 5.83Q158.94 6.79 158.57 7.86L158.57 7.86L158.57 7.86Q157.64 7.97 156.99 8.37L156.99 8.37L156.99 8.37Q156.82 8.48 156.84 8.58L156.84 8.58L156.84 8.58Q156.87 8.67 157.08 8.68L157.08 8.68L157.08 8.68Q157.60 8.70 158.07 8.43L158.07 8.43L158.07 8.43Q158.21 8.41 158.26 8.41L158.26 8.41L158.26 8.41Q158.32 8.41 158.38 8.41L158.38 8.41L158.38 8.41Q158.06 9.39 157.74 10.53L157.74 10.53L157.74 10.53Q157.67 10.79 158.33 10.67L158.33 10.67L158.33 10.67Q158.63 10.62 158.88 10.49L158.88 10.49L158.88 10.49Q159.15 10.37 159.18 10.27L159.18 10.27L159.18 10.27Q159.45 9.32 159.72 8.48L159.72 8.48L159.72 8.48Q160.02 8.50 160.21 8.47L160.21 8.47L160.21 8.47Q160.92 8.39 161.27 8.46L161.27 8.46L161.27 8.46Q161.16 10.55 161.16 12.02L161.16 12.02L161.16 12.02Q161.16 12.10 161.39 12.11L161.39 12.11L161.39 12.11Q161.61 12.12 161.90 12.06L161.90 12.06L161.90 12.06Q162.63 11.91 162.63 11.62L162.63 11.62L162.63 11.62Q162.63 9.90 162.83 6.45L162.83 6.45L162.83 6.45Q163.03 3.00 163.03 1.27L163.03 1.27L163.03 1.27Q163.03 1.18 162.75 1.18L162.75 1.18ZM172.88 11.33L172.88 11.33Q171.84 11.36 171.40 11.16L171.40 11.16L171.40 11.16Q172.25 6.57 173.37 2.08L173.37 2.08L173.37 2.08Q173.43 1.83 172.79 1.95L172.79 1.95L172.79 1.95Q172.48 2.00 172.23 2.12L172.23 2.12L172.23 2.12Q171.95 2.25 171.93 2.34L171.93 2.34L171.93 2.34Q170.81 6.83 169.95 11.47L169.95 11.47L169.95 11.47Q169.86 11.56 169.93 11.61L169.93 11.61L169.93 11.61Q169.93 11.63 169.92 11.70L169.92 11.70L169.92 11.70Q169.91 11.74 169.91 11.78L169.91 11.78L169.91 11.78Q169.89 11.94 170.53 11.83L170.53 11.83L170.53 11.83Q171.02 11.95 171.93 11.92L171.93 11.92L171.93 11.92Q172.54 11.91 172.96 11.65L172.96 11.65L172.96 11.65Q173.14 11.54 173.12 11.44L173.12 11.44L173.12 11.44Q173.09 11.33 172.88 11.33L172.88 11.33ZM181.77 2.53L181.77 2.53Q181.53 3.62 180.91 6.79L180.91 6.79L180.91 6.79Q180.67 8.03 180.48 8.93L180.48 8.93L180.48 8.93Q180.09 10.78 180.09 10.91L180.09 10.91L180.09 10.91Q180.09 10.99 180.31 11.00L180.31 11.00L180.31 11.00Q180.53 11.01 180.81 10.96L180.81 10.96L180.81 10.96Q181.54 10.81 181.55 10.52L181.55 10.52L181.55 10.52Q181.56 10.23 181.71 9.62L181.71 9.62L181.71 9.62Q181.79 9.32 181.95 8.57L181.95 8.57L181.95 8.57Q182.12 7.77 182.38 6.44L182.38 6.44L182.38 6.44Q182.97 3.36 183.22 2.27L183.22 2.27L183.22 2.27Q183.27 2.02 182.63 2.13L182.63 2.13L182.63 2.13Q182.33 2.19 182.08 2.31L182.08 2.31L182.08 2.31Q181.79 2.44 181.77 2.53L181.77 2.53ZM194.71 3.48L194.71 3.48Q194.67 1.70 193.82 1.01L193.82 1.01L193.82 1.01Q193.35 0.64 192.46 0.68L192.46 0.68L192.46 0.68Q191.46 0.72 190.21 1.40L190.21 1.40L190.21 1.40Q190.03 1.50 190.06 1.60L190.06 1.60L190.06 1.60Q190.09 1.70 190.29 1.71L190.29 1.71L190.29 1.71Q190.79 1.72 191.32 1.44L191.32 1.44L191.32 1.44Q191.34 1.43 191.36 1.42L191.36 1.42L191.36 1.42Q191.40 1.39 191.48 1.35L191.48 1.35L191.48 1.35Q191.52 1.34 191.60 1.31L191.60 1.31L191.60 1.31Q191.63 1.29 191.73 1.26L191.73 1.26L191.74 1.26L191.74 1.26Q191.75 1.25 191.75 1.26L191.75 1.26L191.75 1.26Q191.75 1.25 191.78 1.25L191.78 1.25L191.78 1.25Q191.81 1.25 191.85 1.26L191.85 1.26L191.85 1.26Q191.86 1.26 191.88 1.26L191.88 1.26L191.88 1.26Q191.93 1.26 191.93 1.26L191.93 1.26L191.93 1.26Q192.01 1.28 192.11 1.31L192.11 1.31L192.11 1.31Q192.12 1.31 192.12 1.31L192.12 1.31L192.12 1.31Q192.12 1.31 192.12 1.31L192.12 1.31L192.12 1.31Q192.15 1.33 192.20 1.35L192.20 1.35L192.20 1.35Q192.25 1.37 192.34 1.43L192.34 1.43L192.34 1.43Q192.47 1.51 192.60 1.65L192.60 1.65L192.60 1.65Q192.79 1.85 192.95 2.23L192.95 2.23L192.95 2.23Q193.55 3.66 193.01 6.11L193.01 6.11L193.01 6.11Q192.66 7.70 191.95 8.97L191.95 8.97L191.95 8.97Q191.60 9.60 191.19 10.03L191.19 10.03L191.19 10.03Q191.02 10.22 190.80 10.39L190.80 10.39L190.80 10.39Q191.89 5.68 192.36 1.78L192.36 1.78L192.36 1.78Q192.36 1.71 192.14 1.70L192.14 1.70L192.14 1.70Q191.93 1.69 191.65 1.74L191.65 1.74L191.65 1.74Q190.93 1.87 190.89 2.17L190.89 2.17L190.89 2.17Q190.42 6.19 189.25 11.16L189.25 11.16L189.25 11.16Q189.18 11.42 189.83 11.30L189.83 11.30L189.83 11.30Q190.13 11.25 190.38 11.12L190.38 11.12L190.38 11.12Q190.58 11.03 190.64 10.97L190.64 10.97L190.64 10.97Q190.91 10.93 191.29 10.77L191.29 10.77L191.29 10.77Q192.86 10.12 193.84 7.78L193.84 7.78L193.84 7.78Q194.75 5.63 194.71 3.48L194.71 3.48ZM204.10 7.89L204.10 7.89Q204.00 7.90 203.10 7.84L203.10 7.84L203.10 7.84Q203.51 6.63 203.96 5.57L203.96 5.57L203.96 5.57Q204.13 5.18 204.67 3.95L204.67 3.95L204.67 3.95Q204.65 4.61 204.47 7.85L204.47 7.85L204.47 7.85Q204.30 7.87 204.10 7.89L204.10 7.89ZM205.91 1.18L205.91 1.18Q205.73 1.09 205.34 1.16L205.34 1.16L205.34 1.16Q204.70 1.27 204.49 1.55L204.49 1.55L204.49 1.55Q204.29 1.80 203.51 3.58L203.51 3.58L203.51 3.58Q203.38 3.90 203.01 4.70L203.01 4.70L203.01 4.70Q202.70 5.42 202.52 5.83L202.52 5.83L202.52 5.83Q202.10 6.79 201.73 7.86L201.73 7.86L201.73 7.86Q200.81 7.97 200.16 8.37L200.16 8.37L200.16 8.37Q199.98 8.48 200.01 8.58L200.01 8.58L200.01 8.58Q200.03 8.67 200.24 8.68L200.24 8.68L200.24 8.68Q200.76 8.70 201.23 8.43L201.23 8.43L201.23 8.43Q201.37 8.41 201.42 8.41L201.42 8.41L201.42 8.41Q201.48 8.41 201.54 8.41L201.54 8.41L201.54 8.41Q201.22 9.39 200.90 10.53L200.90 10.53L200.90 10.53Q200.83 10.79 201.49 10.67L201.49 10.67L201.49 10.67Q201.79 10.62 202.04 10.49L202.04 10.49L202.04 10.49Q202.32 10.37 202.34 10.27L202.34 10.27L202.34 10.27Q202.61 9.32 202.88 8.48L202.88 8.48L202.88 8.48Q203.18 8.50 203.38 8.47L203.38 8.47L203.38 8.47Q204.08 8.39 204.44 8.46L204.44 8.46L204.44 8.46Q204.33 10.55 204.33 12.02L204.33 12.02L204.33 12.02Q204.33 12.10 204.55 12.11L204.55 12.11L204.55 12.11Q204.77 12.12 205.06 12.06L205.06 12.06L205.06 12.06Q205.79 11.91 205.79 11.62L205.79 11.62L205.79 11.62Q205.79 9.90 205.99 6.45L205.99 6.45L205.99 6.45Q206.19 3.00 206.19 1.27L206.19 1.27L206.19 1.27Q206.19 1.18 205.91 1.18L205.91 1.18ZM218.45 3.48L218.45 3.48Q218.41 1.70 217.56 1.01L217.56 1.01L217.56 1.01Q217.10 0.64 216.20 0.68L216.20 0.68L216.20 0.68Q215.20 0.72 213.95 1.40L213.95 1.40L213.95 1.40Q213.77 1.50 213.80 1.60L213.80 1.60L213.80 1.60Q213.83 1.70 214.03 1.71L214.03 1.71L214.03 1.71Q214.53 1.72 215.07 1.44L215.07 1.44L215.07 1.44Q215.08 1.43 215.10 1.42L215.10 1.42L215.10 1.42Q215.14 1.39 215.22 1.35L215.22 1.35L215.22 1.35Q215.26 1.34 215.34 1.31L215.34 1.31L215.34 1.31Q215.37 1.29 215.48 1.26L215.48 1.26L215.48 1.26L215.48 1.26Q215.49 1.25 215.49 1.26L215.49 1.26L215.49 1.26Q215.50 1.25 215.52 1.25L215.52 1.25L215.52 1.25Q215.55 1.25 215.59 1.26L215.59 1.26L215.59 1.26Q215.60 1.26 215.62 1.26L215.62 1.26L215.62 1.26Q215.67 1.26 215.67 1.26L215.67 1.26L215.67 1.26Q215.75 1.28 215.85 1.31L215.85 1.31L215.85 1.31Q215.86 1.31 215.86 1.31L215.86 1.31L215.86 1.31Q215.86 1.31 215.87 1.31L215.87 1.31L215.87 1.31Q215.89 1.33 215.94 1.35L215.94 1.35L215.94 1.35Q216.00 1.37 216.08 1.43L216.08 1.43L216.08 1.43Q216.21 1.51 216.34 1.65L216.34 1.65L216.34 1.65Q216.54 1.85 216.69 2.23L216.69 2.23L216.69 2.23Q217.29 3.66 216.75 6.11L216.75 6.11L216.75 6.11Q216.41 7.70 215.69 8.97L215.69 8.97L215.69 8.97Q215.34 9.60 214.94 10.03L214.94 10.03L214.94 10.03Q214.76 10.22 214.55 10.39L214.55 10.39L214.55 10.39Q215.63 5.68 216.10 1.78L216.10 1.78L216.10 1.78Q216.10 1.71 215.89 1.70L215.89 1.70L215.89 1.70Q215.67 1.69 215.39 1.74L215.39 1.74L215.39 1.74Q214.67 1.87 214.63 2.17L214.63 2.17L214.63 2.17Q214.16 6.19 212.99 11.16L212.99 11.16L212.99 11.16Q212.93 11.42 213.57 11.30L213.57 11.30L213.57 11.30Q213.87 11.25 214.12 11.12L214.12 11.12L214.12 11.12Q214.32 11.03 214.38 10.97L214.38 10.97L214.38 10.97Q214.65 10.93 215.03 10.77L215.03 10.77L215.03 10.77Q216.60 10.12 217.58 7.78L217.58 7.78L217.58 7.78Q218.49 5.63 218.45 3.48L218.45 3.48ZM237.86 7.89L237.86 7.89Q237.76 7.90 236.86 7.84L236.86 7.84L236.86 7.84Q237.27 6.63 237.73 5.57L237.73 5.57L237.73 5.57Q237.89 5.18 238.44 3.95L238.44 3.95L238.44 3.95Q238.42 4.61 238.23 7.85L238.23 7.85L238.23 7.85Q238.06 7.87 237.86 7.89L237.86 7.89ZM239.67 1.18L239.67 1.18Q239.49 1.09 239.11 1.16L239.11 1.16L239.11 1.16Q238.46 1.27 238.25 1.55L238.25 1.55L238.25 1.55Q238.05 1.80 237.28 3.58L237.28 3.58L237.28 3.58Q237.14 3.90 236.78 4.70L236.78 4.70L236.78 4.70Q236.46 5.42 236.28 5.83L236.28 5.83L236.28 5.83Q235.87 6.79 235.49 7.86L235.49 7.86L235.49 7.86Q234.57 7.97 233.92 8.37L233.92 8.37L233.92 8.37Q233.74 8.48 233.77 8.58L233.77 8.58L233.77 8.58Q233.80 8.67 234.00 8.68L234.00 8.68L234.00 8.68Q234.52 8.70 234.99 8.43L234.99 8.43L234.99 8.43Q235.14 8.41 235.18 8.41L235.18 8.41L235.18 8.41Q235.25 8.41 235.31 8.41L235.31 8.41L235.31 8.41Q234.99 9.39 234.66 10.53L234.66 10.53L234.66 10.53Q234.60 10.79 235.25 10.67L235.25 10.67L235.25 10.67Q235.55 10.62 235.81 10.49L235.81 10.49L235.81 10.49Q236.08 10.37 236.11 10.27L236.11 10.27L236.11 10.27Q236.37 9.32 236.65 8.48L236.65 8.48L236.65 8.48Q236.94 8.50 237.14 8.47L237.14 8.47L237.14 8.47Q237.84 8.39 238.20 8.46L238.20 8.46L238.20 8.46Q238.09 10.55 238.09 12.02L238.09 12.02L238.09 12.02Q238.09 12.10 238.31 12.11L238.31 12.11L238.31 12.11Q238.53 12.12 238.82 12.06L238.82 12.06L238.82 12.06Q239.55 11.91 239.55 11.62L239.55 11.62L239.55 11.62Q239.55 9.90 239.76 6.45L239.76 6.45L239.76 6.45Q239.96 3.00 239.96 1.27L239.96 1.27L239.96 1.27Q239.96 1.18 239.67 1.18L239.67 1.18ZM251.88 2.21L251.88 2.21Q251.24 2.38 251.21 2.63L251.21 2.63L251.21 2.63Q251.15 3.01 251.00 4.51L251.00 4.51L251.00 4.51Q250.87 5.69 250.74 6.41L250.74 6.41L250.74 6.41Q250.33 8.57 249.23 9.83L249.23 9.83L249.23 9.83Q249.08 10.00 248.97 10.12L248.97 10.12L248.97 10.12Q248.71 9.61 248.67 8.40L248.67 8.40L248.67 8.40Q248.62 6.90 249.54 4.58L249.54 4.58L249.54 4.58Q250.22 2.88 250.39 2.40L250.39 2.40L250.39 2.40Q250.48 2.15 249.81 2.26L249.81 2.26L249.81 2.26Q249.03 2.41 248.94 2.66L248.94 2.66L248.94 2.66Q248.78 3.12 248.23 4.53L248.23 4.53L248.23 4.53Q247.76 5.71 247.55 6.43L247.55 6.43L247.55 6.43Q246.89 8.66 247.45 10.36L247.45 10.36L247.45 10.36Q247.56 10.68 247.75 10.83L247.75 10.83L247.75 10.83Q247.99 11.03 248.63 10.92L248.63 10.92L248.63 10.92Q249.64 10.73 250.55 9.71L250.55 9.71L250.55 9.71Q251.72 8.41 252.15 6.34L252.15 6.34L252.15 6.34Q252.31 5.55 252.44 4.29L252.44 4.29L252.44 4.29Q252.62 2.58 252.67 2.24L252.67 2.24L252.67 2.24Q252.68 2.11 252.30 2.14L252.30 2.14L252.30 2.14Q252.05 2.16 251.88 2.21L251.88 2.21ZM266.26 2.21L266.26 2.21Q266.22 2.05 265.67 2.15L265.67 2.15L265.67 2.15Q264.97 2.28 264.80 2.54L264.80 2.54L264.80 2.54Q263.93 4.03 262.99 6.51L262.99 6.51L262.99 6.41L262.99 6.41Q262.99 5.55 262.83 2.12L262.83 2.12L262.83 2.12Q262.82 2.03 262.59 2.02L262.59 2.02L262.59 2.02Q262.45 1.92 262.03 2.00L262.03 2.00L262.03 2.00Q261.32 2.13 261.17 2.39L261.17 2.39L261.17 2.39Q259.04 6.30 258.43 11.14L258.43 11.14L258.43 11.14Q258.42 11.27 258.80 11.23L258.80 11.23L258.80 11.23Q259.05 11.21 259.23 11.16L259.23 11.16L259.23 11.16Q259.87 10.99 259.90 10.75L259.90 10.75L259.90 10.75Q260.30 7.51 261.47 4.58L261.47 4.58L261.47 4.58Q261.52 5.81 261.53 6.71L261.53 6.71L261.53 6.71Q261.54 8.26 261.45 8.86L261.45 8.86L261.45 8.86Q261.27 10.15 261.26 10.99L261.26 10.99L261.26 10.99Q261.26 11.20 261.95 11.03L261.95 11.03L261.95 11.03Q262.62 10.86 262.71 10.66L262.71 10.66L262.71 10.66Q263.19 9.61 263.91 7.67L263.91 7.67L263.91 7.67Q264.69 5.54 265.06 4.66L265.06 4.66L265.06 4.66Q265.10 5.91 264.87 7.85L264.87 7.85L264.87 7.85Q264.53 10.57 264.50 11.04L264.50 11.04L264.50 11.04Q264.49 11.12 264.71 11.12L264.71 11.12L264.71 11.12Q264.93 11.13 265.21 11.08L265.21 11.08L265.21 11.08Q265.93 10.94 265.96 10.65L265.96 10.65L265.96 10.65Q266.01 9.88 266.19 8.54L266.19 8.54L266.19 8.54Q266.38 7.03 266.44 6.43L266.44 6.43L266.44 6.43Q266.68 3.95 266.26 2.21L266.26 2.21ZM278.31 1.42L278.31 1.42Q277.60 1.19 276.42 1.57L276.42 1.57L276.42 1.57Q274.91 2.06 274.35 3.77L274.35 3.77L274.35 3.77Q274.00 4.83 274.18 6.11L274.18 6.11L274.18 6.11Q274.26 6.76 274.53 7.16L274.53 7.16L274.53 7.16Q274.11 7.38 273.82 7.70L273.82 7.70L273.82 7.70Q272.82 8.80 272.93 10.01L272.93 10.01L272.93 10.01Q273 10.70 273.48 11.11L273.48 11.11L273.48 11.11Q273.88 11.44 274.70 11.42L274.70 11.42L274.70 11.42Q275.54 11.39 276.24 10.95L276.24 10.95L276.24 10.95Q276.99 10.49 277.29 9.76L277.29 9.76L277.29 9.76Q277.35 9.61 277.07 9.60L277.07 9.60L277.07 9.60Q276.90 9.59 276.71 9.63L276.71 9.63L276.71 9.63Q275.96 9.76 275.86 10.02L275.86 10.02L275.86 10.02Q275.66 10.51 275.31 10.80L275.31 10.80L275.31 10.80Q275.30 10.81 275.28 10.82L275.28 10.82L275.28 10.82Q275.24 10.81 275.23 10.81L275.23 10.81L275.23 10.81Q275.16 10.79 275.08 10.75L275.08 10.75L275.08 10.75Q274.91 10.68 274.76 10.52L274.76 10.52L274.76 10.52Q274.47 10.23 274.39 9.63L274.39 9.63L274.39 9.63Q274.30 8.83 274.93 7.86L274.93 7.86L274.93 7.86Q275.01 7.74 275.11 7.62L275.11 7.62L275.11 7.62Q275.32 7.70 275.60 7.72L275.60 7.72L275.60 7.72Q276.00 7.74 276.49 7.51L276.49 7.51L276.49 7.51Q276.91 7.32 276.76 7.18L276.76 7.18L276.76 7.18Q276.47 6.90 276.05 6.84L276.05 6.84L276.05 6.84Q276.01 6.79 275.97 6.75L275.97 6.75L275.97 6.75Q275.77 6.45 275.66 5.89L275.66 5.89L275.66 5.89Q275.47 4.89 275.65 4.00L275.65 4.00L275.65 4.00Q275.92 2.70 276.68 2.04L276.68 2.04L276.68 2.04Q276.74 2.00 276.83 1.93L276.83 1.93L276.83 1.93Q276.84 1.93 276.84 1.93L276.84 1.93L276.84 1.93Q276.97 1.94 276.95 1.93L276.95 1.93L276.95 1.93Q277.53 2.02 277.42 2.62L277.42 2.62L277.42 2.62Q277.37 2.86 278.00 2.75L278.00 2.75L278.00 2.75Q278.30 2.69 278.56 2.58L278.56 2.58L278.56 2.58Q278.84 2.45 278.86 2.36L278.86 2.36L278.86 2.36Q279.00 1.63 278.31 1.42L278.31 1.42ZM290.60 0.74L290.60 0.74Q290.29 0.79 290.04 0.91L290.04 0.91L290.04 0.91Q289.76 1.04 289.73 1.13L289.73 1.13L289.73 1.13Q288.85 3.96 288.23 7.39L288.23 7.39L288.23 7.39Q288.15 6.88 288.03 6.21L288.03 6.21L288.03 6.21Q287.74 4.44 287.69 4.05L287.69 4.05L287.69 4.05Q287.54 2.77 287.35 2.37L287.35 2.37L287.35 2.37Q287.35 2.37 287.33 2.35L287.33 2.35L287.34 2.34L287.34 2.34Q287.34 2.34 287.34 2.33L287.34 2.33L287.34 2.33Q287.38 2.08 286.75 2.20L286.75 2.20L286.75 2.20Q286.45 2.26 286.20 2.37L286.20 2.37L286.20 2.37Q285.91 2.51 285.90 2.60L285.90 2.60L285.90 2.60Q285.71 3.71 285.07 6.73L285.07 6.73L285.07 6.73Q284.53 9.34 284.32 10.89L284.32 10.89L284.32 10.89Q284.31 11.01 284.69 10.98L284.69 10.98L284.69 10.98Q284.94 10.96 285.11 10.91L285.11 10.91L285.11 10.91Q285.76 10.74 285.78 10.50L285.78 10.50L285.78 10.50Q285.98 8.97 286.54 6.38L286.54 6.38L286.54 6.38Q286.56 6.54 286.57 6.61L286.57 6.61L286.57 6.61Q286.79 7.90 286.97 8.95L286.97 8.95L286.97 8.95Q287.23 10.45 287.45 11.09L287.45 11.09L287.45 11.09Q287.51 11.24 287.85 11.21L287.85 11.21L287.85 11.21Q288.16 11.18 288.50 11.05L288.50 11.05L288.50 11.05Q289.08 10.89 289.12 10.65L289.12 10.65L289.12 10.65Q289.89 5.00 291.18 0.87L291.18 0.87L291.18 0.87Q291.26 0.62 290.60 0.74L290.60 0.74ZM301.96 2.35L301.96 2.35Q301.01 2.17 300.00 2.15L300.00 2.15L300.00 2.15Q299.91 2.03 299.43 2.11L299.43 2.11L299.43 2.11Q299.33 2.13 299.22 2.16L299.22 2.16L299.22 2.16Q298.15 2.22 297.11 2.46L297.11 2.46L297.11 2.46Q296.37 2.63 296.44 2.88L296.44 2.88L296.44 2.88Q296.49 3.08 297.21 2.91L297.21 2.91L297.21 2.91Q297.22 2.91 297.23 2.90L297.23 2.90L297.23 2.90Q297.25 2.90 297.26 2.89L297.26 2.89L297.26 2.89Q297.34 2.88 297.49 2.85L297.49 2.85L297.49 2.85Q297.66 2.82 297.88 2.80L297.88 2.80L297.88 2.80Q298.17 2.76 298.50 2.75L298.50 2.75L298.50 2.75Q297.08 7.40 296.69 10.96L296.69 10.96L296.69 10.96Q296.68 11.02 296.91 11.03L296.91 11.03L296.91 11.03Q297.12 11.04 297.40 10.99L297.40 10.99L297.40 10.99Q298.12 10.86 298.15 10.56L298.15 10.56L298.15 10.56Q298.53 7.19 299.84 2.78L299.84 2.78L299.84 2.78Q300.32 2.82 300.75 2.91L300.75 2.91L300.75 2.91Q301.19 2.99 301.78 2.72L301.78 2.72L301.78 2.72Q301.94 2.65 302.03 2.54L302.03 2.54L302.03 2.54Q302.18 2.39 301.96 2.35L301.96 2.35ZM310.54 7.89L310.54 7.89Q310.43 7.90 309.53 7.84L309.53 7.84L309.53 7.84Q309.94 6.63 310.40 5.57L310.40 5.57L310.40 5.57Q310.56 5.18 311.11 3.95L311.11 3.95L311.11 3.95Q311.09 4.61 310.91 7.85L310.91 7.85L310.91 7.85Q310.73 7.87 310.54 7.89L310.54 7.89ZM312.35 1.18L312.35 1.18Q312.16 1.09 311.78 1.16L311.78 1.16L311.78 1.16Q311.14 1.27 310.93 1.55L310.93 1.55L310.93 1.55Q310.73 1.80 309.95 3.58L309.95 3.58L309.95 3.58Q309.81 3.90 309.45 4.70L309.45 4.70L309.45 4.70Q309.13 5.42 308.96 5.83L308.96 5.83L308.96 5.83Q308.54 6.79 308.16 7.86L308.16 7.86L308.16 7.86Q307.24 7.97 306.59 8.37L306.59 8.37L306.59 8.37Q306.41 8.48 306.44 8.58L306.44 8.58L306.44 8.58Q306.47 8.67 306.67 8.68L306.67 8.68L306.67 8.68Q307.19 8.70 307.67 8.43L307.67 8.43L307.67 8.43Q307.81 8.41 307.86 8.41L307.86 8.41L307.86 8.41Q307.92 8.41 307.98 8.41L307.98 8.41L307.98 8.41Q307.66 9.39 307.34 10.53L307.34 10.53L307.34 10.53Q307.27 10.79 307.92 10.67L307.92 10.67L307.92 10.67Q308.23 10.62 308.48 10.49L308.48 10.49L308.48 10.49Q308.75 10.37 308.78 10.27L308.78 10.27L308.78 10.27Q309.05 9.32 309.32 8.48L309.32 8.48L309.32 8.48Q309.61 8.50 309.81 8.47L309.81 8.47L309.81 8.47Q310.52 8.39 310.87 8.46L310.87 8.46L310.87 8.46Q310.76 10.55 310.76 12.02L310.76 12.02L310.76 12.02Q310.76 12.10 310.99 12.11L310.99 12.11L310.99 12.11Q311.21 12.12 311.49 12.06L311.49 12.06L311.49 12.06Q312.22 11.91 312.22 11.62L312.22 11.62L312.22 11.62Q312.22 9.90 312.43 6.45L312.43 6.45L312.43 6.45Q312.63 3.00 312.63 1.27L312.63 1.27L312.63 1.27Q312.63 1.18 312.35 1.18L312.35 1.18ZM324.88 3.48L324.88 3.48Q324.84 1.70 324.00 1.01L324.00 1.01L324.00 1.01Q323.53 0.64 322.64 0.68L322.64 0.68L322.64 0.68Q321.64 0.72 320.39 1.40L320.39 1.40L320.39 1.40Q320.20 1.50 320.24 1.60L320.24 1.60L320.24 1.60Q320.27 1.70 320.47 1.71L320.47 1.71L320.47 1.71Q320.97 1.72 321.50 1.44L321.50 1.44L321.50 1.44Q321.51 1.43 321.54 1.42L321.54 1.42L321.54 1.42Q321.58 1.39 321.66 1.35L321.66 1.35L321.66 1.35Q321.70 1.34 321.77 1.31L321.77 1.31L321.77 1.31Q321.80 1.29 321.91 1.26L321.91 1.26L321.92 1.26L321.92 1.26Q321.92 1.25 321.92 1.26L321.92 1.26L321.92 1.26Q321.93 1.25 321.95 1.25L321.95 1.25L321.95 1.25Q321.99 1.25 322.03 1.26L322.03 1.26L322.03 1.26Q322.03 1.26 322.05 1.26L322.05 1.26L322.05 1.26Q322.10 1.26 322.10 1.26L322.10 1.26L322.10 1.26Q322.18 1.28 322.29 1.31L322.29 1.31L322.29 1.31Q322.29 1.31 322.29 1.31L322.29 1.31L322.29 1.31Q322.29 1.31 322.30 1.31L322.30 1.31L322.30 1.31Q322.33 1.33 322.38 1.35L322.38 1.35L322.38 1.35Q322.43 1.37 322.51 1.43L322.51 1.43L322.51 1.43Q322.64 1.51 322.77 1.65L322.77 1.65L322.77 1.65Q322.97 1.85 323.13 2.23L323.13 2.23L323.13 2.23Q323.72 3.66 323.19 6.11L323.19 6.11L323.19 6.11Q322.84 7.70 322.13 8.97L322.13 8.97L322.13 8.97Q321.77 9.60 321.37 10.03L321.37 10.03L321.37 10.03Q321.19 10.22 320.98 10.39L320.98 10.39L320.98 10.39Q322.07 5.68 322.53 1.78L322.53 1.78L322.53 1.78Q322.54 1.71 322.32 1.70L322.32 1.70L322.32 1.70Q322.10 1.69 321.83 1.74L321.83 1.74L321.83 1.74Q321.10 1.87 321.07 2.17L321.07 2.17L321.07 2.17Q320.60 6.19 319.42 11.16L319.42 11.16L319.42 11.16Q319.36 11.42 320.00 11.30L320.00 11.30L320.00 11.30Q320.30 11.25 320.56 11.12L320.56 11.12L320.56 11.12Q320.76 11.03 320.82 10.97L320.82 10.97L320.82 10.97Q321.08 10.93 321.47 10.77L321.47 10.77L321.47 10.77Q323.03 10.12 324.02 7.78L324.02 7.78L324.02 7.78Q324.93 5.63 324.88 3.48L324.88 3.48ZM334.28 7.89L334.28 7.89Q334.17 7.90 333.27 7.84L333.27 7.84L333.27 7.84Q333.68 6.63 334.14 5.57L334.14 5.57L334.14 5.57Q334.30 5.18 334.85 3.95L334.85 3.95L334.85 3.95Q334.83 4.61 334.65 7.85L334.65 7.85L334.65 7.85Q334.48 7.87 334.28 7.89L334.28 7.89ZM336.09 1.18L336.09 1.18Q335.90 1.09 335.52 1.16L335.52 1.16L335.52 1.16Q334.88 1.27 334.67 1.55L334.67 1.55L334.67 1.55Q334.47 1.80 333.69 3.58L333.69 3.58L333.69 3.58Q333.55 3.90 333.19 4.70L333.19 4.70L333.19 4.70Q332.88 5.42 332.70 5.83L332.70 5.83L332.70 5.83Q332.28 6.79 331.91 7.86L331.91 7.86L331.91 7.86Q330.98 7.97 330.33 8.37L330.33 8.37L330.33 8.37Q330.16 8.48 330.18 8.58L330.18 8.58L330.18 8.58Q330.21 8.67 330.42 8.68L330.42 8.68L330.42 8.68Q330.93 8.70 331.41 8.43L331.41 8.43L331.41 8.43Q331.55 8.41 331.60 8.41L331.60 8.41L331.60 8.41Q331.66 8.41 331.72 8.41L331.72 8.41L331.72 8.41Q331.40 9.39 331.08 10.53L331.08 10.53L331.08 10.53Q331.01 10.79 331.67 10.67L331.67 10.67L331.67 10.67Q331.97 10.62 332.22 10.49L332.22 10.49L332.22 10.49Q332.49 10.37 332.52 10.27L332.52 10.27L332.52 10.27Q332.79 9.32 333.06 8.48L333.06 8.48L333.06 8.48Q333.35 8.50 333.55 8.47L333.55 8.47L333.55 8.47Q334.26 8.39 334.61 8.46L334.61 8.46L334.61 8.46Q334.50 10.55 334.50 12.02L334.50 12.02L334.50 12.02Q334.50 12.10 334.73 12.11L334.73 12.11L334.73 12.11Q334.95 12.12 335.23 12.06L335.23 12.06L335.23 12.06Q335.97 11.91 335.97 11.62L335.97 11.62L335.97 11.62Q335.97 9.90 336.17 6.45L336.17 6.45L336.17 6.45Q336.37 3.00 336.37 1.27L336.37 1.27L336.37 1.27Q336.37 1.18 336.09 1.18L336.09 1.18Z"></path></g></svg>