<svg data-v-423bf9ae="" xmlns="http://www.w3.org/2000/svg" viewBox="0 0 182.46398797326 60" class="font"><!----><!----><!----><g data-v-423bf9ae="" id="12a9a17e-ba8b-46ec-ace8-befdf7dcd3e1" fill="black" transform="matrix(4.322766534963878,0,0,4.322766534963878,0.648415260856325,2.636887767374926)"><path d="M-0.15 2.92L-0.15 10.50L2.04 10.50L2.04 5.10L2.04 5.10Q2.04 4.23 2.99 4.23L2.99 4.23L2.99 4.23Q3.94 4.23 3.94 5.10L3.94 5.10L3.94 10.50L6.07 10.50L6.07 5.10L6.07 5.10Q6.07 4.23 7 4.23L7 4.23L7 4.23Q7.93 4.23 7.93 5.10L7.93 5.10L7.93 10.50L10.12 10.50L10.12 4.67L10.12 4.67Q10.12 2.77 8.16 2.77L8.16 2.77L8.16 2.77Q6.19 2.77 5.78 3.70L5.78 3.70L5.78 3.70Q5.45 2.77 3.75 2.77L3.75 2.77L3.75 2.77Q2.04 2.77 2.04 3.94L2.04 3.94L2.04 2.92L-0.15 2.92ZM11.35 10.50L14.99 0L16.63 0L20.27 10.50L18.00 10.50L17.06 7.88L14.12 7.88L13.18 10.50L11.35 10.50ZM14.67 6.42L16.60 6.42L15.60 3.32L14.67 6.42ZM20.91 0L20.91 10.50L23.10 10.50L23.10 5.98L25.29 5.98L25.29 5.98Q26.02 5.98 26.02 6.71L26.02 6.71L26.02 9.92L26.02 9.92Q26.02 10.50 26.60 10.50L26.60 10.50L28.79 10.50L28.79 10.50Q28.20 10.50 28.20 9.92L28.20 9.92L28.20 7L28.20 7Q28.20 5.25 26.60 5.25L26.60 5.25L26.60 5.25Q28.20 5.25 28.20 3.50L28.20 3.50L28.20 1.75L28.20 1.75Q28.20 0 25.73 0L25.73 0L20.91 0ZM25.29 4.52L23.10 4.52L23.10 1.46L25.29 1.46L25.29 1.46Q26.02 1.46 26.02 2.19L26.02 2.19L26.02 3.79L26.02 3.79Q26.02 4.52 25.29 4.52L25.29 4.52ZM31.56 2.92L29.37 2.92L29.37 10.94L29.37 10.94Q29.37 11.81 28.47 11.81L28.47 11.81L28.47 13.27L29.51 13.27L29.51 13.27Q31.56 13.27 31.56 11.75L31.56 11.75L31.56 2.92ZM31.67 0.42L31.67 0.42L31.67 0.42Q31.67-0.61 30.46-0.61L30.46-0.61L30.46-0.61Q29.25-0.61 29.25 0.42L29.25 0.42L29.25 0.42Q29.25 1.46 30.46 1.46L30.46 1.46L30.46 1.46Q31.67 1.46 31.67 0.42ZM36.37 9.71L36.37 9.71Q36.37 10.65 35.15 10.65L35.15 10.65L35.15 10.65Q32.43 10.65 32.43 8.75L32.43 8.75L32.43 7.76L32.43 7.76Q32.43 5.80 35.50 5.80L35.50 5.80L35.50 5.80Q36.37 5.80 36.37 5.25L36.37 5.25L36.37 4.96L36.37 4.96Q36.37 4.23 35.50 4.23L35.50 4.23L35.50 4.23Q34.83 4.23 34.83 4.96L34.83 4.96L34.83 5.25L32.64 5.25L32.64 4.67L32.64 4.67Q32.64 2.77 35.50 2.77L35.50 2.77L35.50 2.77Q38.56 2.77 38.56 4.67L38.56 4.67L38.56 9.48L38.56 9.48Q38.56 10.50 39.14 10.50L39.14 10.50L36.95 10.50L36.95 10.50Q36.37 10.50 36.37 9.71L36.37 9.71ZM36.37 6.82L36.37 6.82Q36.37 7.26 35.50 7.26L35.50 7.26L35.50 7.26Q34.62 7.26 34.62 8.05L34.62 8.05L34.62 8.46L34.62 8.46Q34.62 9.19 35.50 9.19L35.50 9.19L35.50 9.19Q36.37 9.19 36.37 8.10L36.37 8.10L36.37 6.82ZM39.87 10.50L42.06 10.50L42.06-0.29L39.87-0.29L39.87 10.50Z"></path></g><!----><!----></svg>